{"scene":0,"asset":{"generator":"ImageToStl.com","version":"2.0"},"scenes":[{"name":"Scene","nodes":[0]}],"nodes":[{"name":"Node0","children":[1]},{"name":"Node1","mesh":0,"children":[2,3,4]},{"name":"Node2","mesh":1},{"name":"Node3","mesh":2},{"name":"Node4","mesh":3}],"materials":[{"name":"#8DB6EBFF","pbrMetallicRoughness":{"baseColorFactor":[0.5529412,0.7137255,0.92156863,1.0],"metallicFactor":0.05,"roughnessFactor":0.5},"doubleSided":true},{"name":"#1ECEFEFF","pbrMetallicRoughness":{"baseColorFactor":[0.11764706,0.80784315,0.99607843,1.0],"metallicFactor":0.05,"roughnessFactor":0.5},"doubleSided":true},{"name":"#79A12EFF","pbrMetallicRoughness":{"baseColorFactor":[0.4745098,0.6313726,0.18039216,1.0],"metallicFactor":0.05,"roughnessFactor":0.5},"doubleSided":true},{"name":"#0076C0FF","pbrMetallicRoughness":{"baseColorFactor":[0.0,0.4627451,0.7529412,1.0],"metallicFactor":0.05,"roughnessFactor":0.5},"doubleSided":true}],"meshes":[{"name":"Mesh0","primitives":[{"indices":1,"material":0,"attributes":{"POSITION":0}}]},{"name":"Mesh0","primitives":[{"indices":3,"material":1,"attributes":{"POSITION":2}}]},{"name":"Mesh0","primitives":[{"indices":5,"material":2,"attributes":{"POSITION":4}}]},{"name":"Mesh0","primitives":[{"indices":7,"material":3,"attributes":{"POSITION":6}}]}],"accessors":[{"bufferView":0,"componentType":5126,"count":556,"type":"VEC3","min":[186.66087,0.0,-12.2],"max":[318.8668,130.70209,0.2]},{"bufferView":1,"componentType":5123,"count":1764,"type":"SCALAR"},{"bufferView":2,"componentType":5126,"count":122,"type":"VEC3","min":[186.66087,0.096180126,-12.2],"max":[270.24405,42.266155,0.2]},{"bufferView":3,"componentType":5123,"count":354,"type":"SCALAR"},{"bufferView":4,"componentType":5126,"count":261,"type":"VEC3","min":[186.81073,0.11843901,-12.0],"max":[266.15097,130.5022,0.0]},{"bufferView":5,"componentType":5123,"count":777,"type":"SCALAR"},{"bufferView":6,"componentType":5126,"count":147,"type":"VEC3","min":[188.85132,0.0,-12.2],"max":[318.8668,130.70209,0.2]},{"bufferView":7,"componentType":5123,"count":429,"type":"SCALAR"}],"bufferViews":[{"target":34962,"buffer":0,"byteLength":6672,"byteOffset":0},{"target":34963,"buffer":0,"byteLength":3528,"byteOffset":6672},{"target":34962,"buffer":0,"byteLength":1464,"byteOffset":10200},{"target":34963,"buffer":0,"byteLength":708,"byteOffset":11664},{"target":34962,"buffer":0,"byteLength":3132,"byteOffset":12372},{"target":34963,"buffer":0,"byteLength":1554,"byteOffset":15504},{"target":34962,"buffer":0,"byteLength":1764,"byteOffset":17060},{"target":34963,"buffer":0,"byteLength":858,"byteOffset":18824}],"buffers":[{"byteLength":19684,"uri":"data:application/octet-stream;base64,"}]}