<svg width="884" height="449" viewBox="0 0 884 449" fill="none" xmlns="http://www.w3.org/2000/svg">
<g filter="url(#filter0_d_74_1175)">
<mask id="path-1-outside-1_74_1175" maskUnits="userSpaceOnUse" x="0" y="0" width="872" height="441" fill="black">
<rect fill="white" width="872" height="441"/>
<path d="M93.293 2.99999H123.543V118.25L66.543 178H44.293L3.04297 117V2.99999H33.293V111.25L57.293 147L93.293 109.25V2.99999ZM176.195 2.99999H251.445L273.445 36.5V154L250.695 178H175.695L152.945 144.5V27L176.195 2.99999ZM183.195 139L190.445 149.75H238.445L243.195 144.75V42L235.945 31.25H187.695L183.195 36.25V139ZM302.598 2.99999H394.348L423.598 45.75V75L400.598 98.75L423.598 132.5V178H393.348V137.75L370.598 104.5H346.098L332.848 96.25V178H302.598V2.99999ZM332.848 31.25V76.25H383.598L393.348 66.25V51.75L379.098 31.25H332.848ZM447.75 2.99999H578.25V31.25H511.75L528.25 46V178H498V53L490.75 31.25H447.75V2.99999ZM623.152 2.99999H720.652V31.25H634.652L630.152 36.25V75.5H687.902V103.75H630.152V138.75L637.402 149.75H720.652V178H622.402L599.902 144.5V26.75L623.152 2.99999ZM838.055 2.99999H868.305V56.25L844.555 80.5L868.305 115.25V178H838.055V121L825.305 103.25H813.805L787.555 130.75V178H757.305V121.25L781.055 97L757.305 62.25V2.99999H787.555V56.5L799.805 75H811.805L838.055 47.5V2.99999ZM227.646 258H348.646V286L305.646 330.5H322.646L348.646 369.5V413L324.896 438H227.646V409.75H312.396L318.646 403.75V375L303.896 353.75H265.646V331.5L309.646 286.25H227.646V258ZM400.799 257.75H478.049V286H412.549L408.049 291V341.25L418.549 330.5H485.049L498.299 350V405.5L466.799 438H397.799L377.799 404V281.75L400.799 257.75ZM408.049 398.75L415.549 409.75H455.049L468.049 396.25V358.75H430.299L408.049 381.25V398.75ZM550.951 258H625.951L648.201 291.25V414L625.451 438H550.451L527.701 404.5V281.75L550.951 258ZM557.951 291.25V362.75L617.951 300.5V297L610.701 286.25H562.451L557.951 291.25ZM557.951 399.5L565.201 409.75H613.201L617.951 404.75V335.5L557.951 398V399.5Z"/>
</mask>
<path d="M93.293 2.99999H123.543V118.25L66.543 178H44.293L3.04297 117V2.99999H33.293V111.25L57.293 147L93.293 109.25V2.99999ZM176.195 2.99999H251.445L273.445 36.5V154L250.695 178H175.695L152.945 144.5V27L176.195 2.99999ZM183.195 139L190.445 149.75H238.445L243.195 144.75V42L235.945 31.25H187.695L183.195 36.25V139ZM302.598 2.99999H394.348L423.598 45.75V75L400.598 98.75L423.598 132.5V178H393.348V137.75L370.598 104.5H346.098L332.848 96.25V178H302.598V2.99999ZM332.848 31.25V76.25H383.598L393.348 66.25V51.75L379.098 31.25H332.848ZM447.75 2.99999H578.25V31.25H511.75L528.25 46V178H498V53L490.75 31.25H447.75V2.99999ZM623.152 2.99999H720.652V31.25H634.652L630.152 36.25V75.5H687.902V103.75H630.152V138.75L637.402 149.75H720.652V178H622.402L599.902 144.5V26.75L623.152 2.99999ZM838.055 2.99999H868.305V56.25L844.555 80.5L868.305 115.25V178H838.055V121L825.305 103.25H813.805L787.555 130.75V178H757.305V121.25L781.055 97L757.305 62.25V2.99999H787.555V56.5L799.805 75H811.805L838.055 47.5V2.99999ZM227.646 258H348.646V286L305.646 330.5H322.646L348.646 369.5V413L324.896 438H227.646V409.75H312.396L318.646 403.75V375L303.896 353.75H265.646V331.5L309.646 286.25H227.646V258ZM400.799 257.75H478.049V286H412.549L408.049 291V341.25L418.549 330.5H485.049L498.299 350V405.5L466.799 438H397.799L377.799 404V281.75L400.799 257.75ZM408.049 398.75L415.549 409.75H455.049L468.049 396.25V358.75H430.299L408.049 381.25V398.75ZM550.951 258H625.951L648.201 291.25V414L625.451 438H550.451L527.701 404.5V281.75L550.951 258ZM557.951 291.25V362.75L617.951 300.5V297L610.701 286.25H562.451L557.951 291.25ZM557.951 399.5L565.201 409.75H613.201L617.951 404.75V335.5L557.951 398V399.5Z" fill="#FF6B00"/>
<path d="M93.293 2.99999V-1.19209e-05H90.293V2.99999H93.293ZM123.543 2.99999H126.543V-1.19209e-05H123.543V2.99999ZM123.543 118.25L125.714 120.321L126.543 119.451V118.25H123.543ZM66.543 178V181H67.8272L68.7137 180.071L66.543 178ZM44.293 178L41.8078 179.681L42.7001 181H44.293V178ZM3.04297 117H0.0429698V117.919L0.557841 118.681L3.04297 117ZM3.04297 2.99999V-1.19209e-05H0.0429698V2.99999H3.04297ZM33.293 2.99999H36.293V-1.19209e-05H33.293V2.99999ZM33.293 111.25H30.293V112.164L30.8022 112.922L33.293 111.25ZM57.293 147L54.8022 148.672L56.8851 151.775L59.464 149.07L57.293 147ZM93.293 109.25L95.464 111.32L96.293 110.451V109.25H93.293ZM93.293 5.99999H123.543V-1.19209e-05H93.293V5.99999ZM120.543 2.99999V118.25H126.543V2.99999H120.543ZM121.372 116.179L64.3723 175.929L68.7137 180.071L125.714 120.321L121.372 116.179ZM66.543 175H44.293V181H66.543V175ZM46.7781 176.319L5.5281 115.319L0.557841 118.681L41.8078 179.681L46.7781 176.319ZM6.04297 117V2.99999H0.0429698V117H6.04297ZM3.04297 5.99999H33.293V-1.19209e-05H3.04297V5.99999ZM30.293 2.99999V111.25H36.293V2.99999H30.293ZM30.8022 112.922L54.8022 148.672L59.7838 145.328L35.7837 109.578L30.8022 112.922ZM59.464 149.07L95.464 111.32L91.1219 107.18L55.1219 144.93L59.464 149.07ZM96.293 109.25V2.99999H90.293V109.25H96.293ZM176.195 2.99999V-1.19209e-05H174.925L174.041 0.912603L176.195 2.99999ZM251.445 2.99999L253.953 1.3532L253.064 -1.19209e-05H251.445V2.99999ZM273.445 36.5H276.445V35.603L275.953 34.8532L273.445 36.5ZM273.445 154L275.623 156.064L276.445 155.196V154H273.445ZM250.695 178V181H251.985L252.873 180.064L250.695 178ZM175.695 178L173.214 179.685L174.106 181H175.695V178ZM152.945 144.5H149.945V145.422L150.464 146.185L152.945 144.5ZM152.945 27L150.791 24.9126L149.945 25.7852V27H152.945ZM183.195 139H180.195V139.917L180.708 140.677L183.195 139ZM190.445 149.75L187.958 151.427L188.85 152.75H190.445V149.75ZM238.445 149.75V152.75H239.733L240.62 151.816L238.445 149.75ZM243.195 144.75L245.37 146.816L246.195 145.948V144.75H243.195ZM243.195 42H246.195V41.0829L245.683 40.3226L243.195 42ZM235.945 31.25L238.433 29.5726L237.541 28.25H235.945V31.25ZM187.695 31.25V28.25H186.359L185.465 29.2431L187.695 31.25ZM183.195 36.25L180.965 34.2431L180.195 35.0988V36.25H183.195ZM176.195 5.99999H251.445V-1.19209e-05H176.195V5.99999ZM248.938 4.64677L270.938 38.1468L275.953 34.8532L253.953 1.3532L248.938 4.64677ZM270.445 36.5V154H276.445V36.5H270.445ZM271.268 151.936L248.518 175.936L252.873 180.064L275.623 156.064L271.268 151.936ZM250.695 175H175.695V181H250.695V175ZM178.177 176.315L155.427 142.815L150.464 146.185L173.214 179.685L178.177 176.315ZM155.945 144.5V27H149.945V144.5H155.945ZM155.1 29.0874L178.35 5.08737L174.041 0.912603L150.791 24.9126L155.1 29.0874ZM180.708 140.677L187.958 151.427L192.933 148.073L185.683 137.323L180.708 140.677ZM190.445 152.75H238.445V146.75H190.445V152.75ZM240.62 151.816L245.37 146.816L241.02 142.684L236.27 147.684L240.62 151.816ZM246.195 144.75V42H240.195V144.75H246.195ZM245.683 40.3226L238.433 29.5726L233.458 32.9274L240.708 43.6774L245.683 40.3226ZM235.945 28.25H187.695V34.25H235.945V28.25ZM185.465 29.2431L180.965 34.2431L185.425 38.2569L189.925 33.2569L185.465 29.2431ZM180.195 36.25V139H186.195V36.25H180.195ZM302.598 2.99999V-1.19209e-05H299.598V2.99999H302.598ZM394.348 2.99999L396.824 1.30594L395.93 -1.19209e-05H394.348V2.99999ZM423.598 45.75H426.598V44.8219L426.074 44.0559L423.598 45.75ZM423.598 75L425.753 77.087L426.598 76.2145V75H423.598ZM400.598 98.75L398.443 96.663L396.742 98.4192L398.119 100.439L400.598 98.75ZM423.598 132.5H426.598V131.575L426.077 130.811L423.598 132.5ZM423.598 178V181H426.598V178H423.598ZM393.348 178H390.348V181H393.348V178ZM393.348 137.75H396.348V136.822L395.824 136.056L393.348 137.75ZM370.598 104.5L373.074 102.806L372.18 101.5H370.598V104.5ZM346.098 104.5L344.512 107.047L345.24 107.5H346.098V104.5ZM332.848 96.25L334.433 93.7033L329.848 90.8481V96.25H332.848ZM332.848 178V181H335.848V178H332.848ZM302.598 178H299.598V181H302.598V178ZM332.848 31.25V28.25H329.848V31.25H332.848ZM332.848 76.25H329.848V79.25H332.848V76.25ZM383.598 76.25V79.25H384.863L385.746 78.3443L383.598 76.25ZM393.348 66.25L395.496 68.3443L396.348 67.4704V66.25H393.348ZM393.348 51.75H396.348V50.8097L395.811 50.0377L393.348 51.75ZM379.098 31.25L381.561 29.5377L380.666 28.25H379.098V31.25ZM302.598 5.99999H394.348V-1.19209e-05H302.598V5.99999ZM391.872 4.69404L421.122 47.444L426.074 44.0559L396.824 1.30594L391.872 4.69404ZM420.598 45.75V75H426.598V45.75H420.598ZM421.443 72.913L398.443 96.663L402.753 100.837L425.753 77.087L421.443 72.913ZM398.119 100.439L421.119 134.189L426.077 130.811L403.077 97.0606L398.119 100.439ZM420.598 132.5V178H426.598V132.5H420.598ZM423.598 175H393.348V181H423.598V175ZM396.348 178V137.75H390.348V178H396.348ZM395.824 136.056L373.074 102.806L368.122 106.194L390.872 139.444L395.824 136.056ZM370.598 101.5H346.098V107.5H370.598V101.5ZM347.683 101.953L334.433 93.7033L331.262 98.7967L344.512 107.047L347.683 101.953ZM329.848 96.25V178H335.848V96.25H329.848ZM332.848 175H302.598V181H332.848V175ZM305.598 178V2.99999H299.598V178H305.598ZM329.848 31.25V76.25H335.848V31.25H329.848ZM332.848 79.25H383.598V73.25H332.848V79.25ZM385.746 78.3443L395.496 68.3443L391.2 64.1557L381.45 74.1557L385.746 78.3443ZM396.348 66.25V51.75H390.348V66.25H396.348ZM395.811 50.0377L381.561 29.5377L376.634 32.9623L390.884 53.4623L395.811 50.0377ZM379.098 28.25H332.848V34.25H379.098V28.25ZM447.75 2.99999V-1.19209e-05H444.75V2.99999H447.75ZM578.25 2.99999H581.25V-1.19209e-05H578.25V2.99999ZM578.25 31.25V34.25H581.25V31.25H578.25ZM511.75 31.25V28.25H503.893L509.751 33.4866L511.75 31.25ZM528.25 46H531.25V44.6579L530.249 43.7634L528.25 46ZM528.25 178V181H531.25V178H528.25ZM498 178H495V181H498V178ZM498 53H501V52.5132L500.846 52.0513L498 53ZM490.75 31.25L493.596 30.3013L492.912 28.25H490.75V31.25ZM447.75 31.25H444.75V34.25H447.75V31.25ZM447.75 5.99999H578.25V-1.19209e-05H447.75V5.99999ZM575.25 2.99999V31.25H581.25V2.99999H575.25ZM578.25 28.25H511.75V34.25H578.25V28.25ZM509.751 33.4866L526.251 48.2366L530.249 43.7634L513.749 29.0134L509.751 33.4866ZM525.25 46V178H531.25V46H525.25ZM528.25 175H498V181H528.25V175ZM501 178V53H495V178H501ZM500.846 52.0513L493.596 30.3013L487.904 32.1987L495.154 53.9487L500.846 52.0513ZM490.75 28.25H447.75V34.25H490.75V28.25ZM450.75 31.25V2.99999H444.75V31.25H450.75ZM623.152 2.99999V-1.19209e-05H621.891L621.009 0.901354L623.152 2.99999ZM720.652 2.99999H723.652V-1.19209e-05H720.652V2.99999ZM720.652 31.25V34.25H723.652V31.25H720.652ZM634.652 31.25V28.25H633.316L632.422 29.2431L634.652 31.25ZM630.152 36.25L627.922 34.2431L627.152 35.0988V36.25H630.152ZM630.152 75.5H627.152V78.5H630.152V75.5ZM687.902 75.5H690.902V72.5H687.902V75.5ZM687.902 103.75V106.75H690.902V103.75H687.902ZM630.152 103.75V100.75H627.152V103.75H630.152ZM630.152 138.75H627.152V139.65L627.647 140.401L630.152 138.75ZM637.402 149.75L634.897 151.401L635.787 152.75H637.402V149.75ZM720.652 149.75H723.652V146.75H720.652V149.75ZM720.652 178V181H723.652V178H720.652ZM622.402 178L619.912 179.673L620.803 181H622.402V178ZM599.902 144.5H596.902V145.414L597.412 146.173L599.902 144.5ZM599.902 26.75L597.759 24.6514L596.902 25.526V26.75H599.902ZM623.152 5.99999H720.652V-1.19209e-05H623.152V5.99999ZM717.652 2.99999V31.25H723.652V2.99999H717.652ZM720.652 28.25H634.652V34.25H720.652V28.25ZM632.422 29.2431L627.922 34.2431L632.382 38.2569L636.882 33.2569L632.422 29.2431ZM627.152 36.25V75.5H633.152V36.25H627.152ZM630.152 78.5H687.902V72.5H630.152V78.5ZM684.902 75.5V103.75H690.902V75.5H684.902ZM687.902 100.75H630.152V106.75H687.902V100.75ZM627.152 103.75V138.75H633.152V103.75H627.152ZM627.647 140.401L634.897 151.401L639.907 148.099L632.657 137.099L627.647 140.401ZM637.402 152.75H720.652V146.75H637.402V152.75ZM717.652 149.75V178H723.652V149.75H717.652ZM720.652 175H622.402V181H720.652V175ZM624.893 176.327L602.393 142.827L597.412 146.173L619.912 179.673L624.893 176.327ZM602.902 144.5V26.75H596.902V144.5H602.902ZM602.046 28.8486L625.296 5.09862L621.009 0.901354L597.759 24.6514L602.046 28.8486ZM838.055 2.99999V-1.19209e-05H835.055V2.99999H838.055ZM868.305 2.99999H871.305V-1.19209e-05H868.305V2.99999ZM868.305 56.25L870.448 58.3491L871.305 57.4744V56.25H868.305ZM844.555 80.5L842.411 78.4009L840.689 80.16L842.078 82.1928L844.555 80.5ZM868.305 115.25H871.305V114.323L870.781 113.557L868.305 115.25ZM868.305 178V181H871.305V178H868.305ZM838.055 178H835.055V181H838.055V178ZM838.055 121H841.055V120.034L840.491 119.25L838.055 121ZM825.305 103.25L827.741 101.5L826.844 100.25H825.305V103.25ZM813.805 103.25V100.25H812.521L811.635 101.179L813.805 103.25ZM787.555 130.75L785.385 128.679L784.555 129.548V130.75H787.555ZM787.555 178V181H790.555V178H787.555ZM757.305 178H754.305V181H757.305V178ZM757.305 121.25L755.161 119.151L754.305 120.026V121.25H757.305ZM781.055 97L783.198 99.0991L784.921 97.34L783.531 95.3072L781.055 97ZM757.305 62.25H754.305V63.1772L754.828 63.9428L757.305 62.25ZM757.305 2.99999V-1.19209e-05H754.305V2.99999H757.305ZM787.555 2.99999H790.555V-1.19209e-05H787.555V2.99999ZM787.555 56.5H784.555V57.4032L785.053 58.1563L787.555 56.5ZM799.805 75L797.303 76.6563L798.193 78H799.805V75ZM811.805 75V78H813.088L813.975 77.0714L811.805 75ZM838.055 47.5L840.225 49.5714L841.055 48.702V47.5H838.055ZM838.055 5.99999H868.305V-1.19209e-05H838.055V5.99999ZM865.305 2.99999V56.25H871.305V2.99999H865.305ZM866.161 54.1509L842.411 78.4009L846.698 82.5991L870.448 58.3491L866.161 54.1509ZM842.078 82.1928L865.828 116.943L870.781 113.557L847.031 78.8072L842.078 82.1928ZM865.305 115.25V178H871.305V115.25H865.305ZM868.305 175H838.055V181H868.305V175ZM841.055 178V121H835.055V178H841.055ZM840.491 119.25L827.741 101.5L822.868 105L835.618 122.75L840.491 119.25ZM825.305 100.25H813.805V106.25H825.305V100.25ZM811.635 101.179L785.385 128.679L789.725 132.821L815.975 105.321L811.635 101.179ZM784.555 130.75V178H790.555V130.75H784.555ZM787.555 175H757.305V181H787.555V175ZM760.305 178V121.25H754.305V178H760.305ZM759.448 123.349L783.198 99.0991L778.911 94.9009L755.161 119.151L759.448 123.349ZM783.531 95.3072L759.781 60.5572L754.828 63.9428L778.578 98.6928L783.531 95.3072ZM760.305 62.25V2.99999H754.305V62.25H760.305ZM757.305 5.99999H787.555V-1.19209e-05H757.305V5.99999ZM784.555 2.99999V56.5H790.555V2.99999H784.555ZM785.053 58.1563L797.303 76.6563L802.306 73.3437L790.056 54.8437L785.053 58.1563ZM799.805 78H811.805V72H799.805V78ZM813.975 77.0714L840.225 49.5714L835.885 45.4286L809.635 72.9286L813.975 77.0714ZM841.055 47.5V2.99999H835.055V47.5H841.055ZM227.646 258V255H224.646V258H227.646ZM348.646 258H351.646V255H348.646V258ZM348.646 286L350.804 288.085L351.646 287.213V286H348.646ZM305.646 330.5L303.489 328.415L298.576 333.5H305.646V330.5ZM322.646 330.5L325.143 328.836L324.252 327.5H322.646V330.5ZM348.646 369.5H351.646V368.592L351.143 367.836L348.646 369.5ZM348.646 413L350.821 415.066L351.646 414.198V413H348.646ZM324.896 438V441H326.184L327.071 440.066L324.896 438ZM227.646 438H224.646V441H227.646V438ZM227.646 409.75V406.75H224.646V409.75H227.646ZM312.396 409.75V412.75H313.603L314.474 411.914L312.396 409.75ZM318.646 403.75L320.724 405.914L321.646 405.029V403.75H318.646ZM318.646 375H321.646V374.061L321.111 373.289L318.646 375ZM303.896 353.75L306.361 352.039L305.466 350.75H303.896V353.75ZM265.646 353.75H262.646V356.75H265.646V353.75ZM265.646 331.5L263.496 329.409L262.646 330.282V331.5H265.646ZM309.646 286.25L311.797 288.341L316.748 283.25H309.646V286.25ZM227.646 286.25H224.646V289.25H227.646V286.25ZM227.646 261H348.646V255H227.646V261ZM345.646 258V286H351.646V258H345.646ZM346.489 283.915L303.489 328.415L307.804 332.585L350.804 288.085L346.489 283.915ZM305.646 333.5H322.646V327.5H305.646V333.5ZM320.15 332.164L346.15 371.164L351.143 367.836L325.143 328.836L320.15 332.164ZM345.646 369.5V413H351.646V369.5H345.646ZM346.472 410.934L322.721 435.934L327.071 440.066L350.821 415.066L346.472 410.934ZM324.896 435H227.646V441H324.896V435ZM230.646 438V409.75H224.646V438H230.646ZM227.646 412.75H312.396V406.75H227.646V412.75ZM314.474 411.914L320.724 405.914L316.569 401.586L310.319 407.586L314.474 411.914ZM321.646 403.75V375H315.646V403.75H321.646ZM321.111 373.289L306.361 352.039L301.432 355.461L316.182 376.711L321.111 373.289ZM303.896 350.75H265.646V356.75H303.896V350.75ZM268.646 353.75V331.5H262.646V353.75H268.646ZM267.797 333.591L311.797 288.341L307.496 284.159L263.496 329.409L267.797 333.591ZM309.646 283.25H227.646V289.25H309.646V283.25ZM230.646 286.25V258H224.646V286.25H230.646ZM400.799 257.75V254.75H399.519L398.633 255.674L400.799 257.75ZM478.049 257.75H481.049V254.75H478.049V257.75ZM478.049 286V289H481.049V286H478.049ZM412.549 286V283H411.213L410.319 283.993L412.549 286ZM408.049 291L405.819 288.993L405.049 289.849V291H408.049ZM408.049 341.25H405.049V348.615L410.195 343.346L408.049 341.25ZM418.549 330.5V327.5H417.285L416.403 328.404L418.549 330.5ZM485.049 330.5L487.53 328.814L486.637 327.5H485.049V330.5ZM498.299 350H501.299V349.077L500.78 348.314L498.299 350ZM498.299 405.5L500.453 407.588L501.299 406.715V405.5H498.299ZM466.799 438V441H468.069L468.953 440.088L466.799 438ZM397.799 438L395.213 439.521L396.083 441H397.799V438ZM377.799 404H374.799V404.817L375.213 405.521L377.799 404ZM377.799 281.75L375.633 279.674L374.799 280.545V281.75H377.799ZM408.049 398.75H405.049V399.675L405.57 400.44L408.049 398.75ZM415.549 409.75L413.07 411.44L413.963 412.75H415.549V409.75ZM455.049 409.75V412.75H456.325L457.21 411.831L455.049 409.75ZM468.049 396.25L470.21 398.331L471.049 397.46V396.25H468.049ZM468.049 358.75H471.049V355.75H468.049V358.75ZM430.299 358.75V355.75H429.046L428.166 356.641L430.299 358.75ZM408.049 381.25L405.916 379.141L405.049 380.017V381.25H408.049ZM400.799 260.75H478.049V254.75H400.799V260.75ZM475.049 257.75V286H481.049V257.75H475.049ZM478.049 283H412.549V289H478.049V283ZM410.319 283.993L405.819 288.993L410.279 293.007L414.779 288.007L410.319 283.993ZM405.049 291V341.25H411.049V291H405.049ZM410.195 343.346L420.695 332.596L416.403 328.404L405.903 339.154L410.195 343.346ZM418.549 333.5H485.049V327.5H418.549V333.5ZM482.567 332.186L495.817 351.686L500.78 348.314L487.53 328.814L482.567 332.186ZM495.299 350V405.5H501.299V350H495.299ZM496.145 403.412L464.645 435.912L468.953 440.088L500.453 407.588L496.145 403.412ZM466.799 435H397.799V441H466.799V435ZM400.385 436.479L380.385 402.479L375.213 405.521L395.213 439.521L400.385 436.479ZM380.799 404V281.75H374.799V404H380.799ZM379.965 283.826L402.965 259.826L398.633 255.674L375.633 279.674L379.965 283.826ZM405.57 400.44L413.07 411.44L418.028 408.06L410.528 397.06L405.57 400.44ZM415.549 412.75H455.049V406.75H415.549V412.75ZM457.21 411.831L470.21 398.331L465.888 394.169L452.888 407.669L457.21 411.831ZM471.049 396.25V358.75H465.049V396.25H471.049ZM468.049 355.75H430.299V361.75H468.049V355.75ZM428.166 356.641L405.916 379.141L410.182 383.359L432.432 360.859L428.166 356.641ZM405.049 381.25V398.75H411.049V381.25H405.049ZM550.951 258V255H549.69L548.807 255.901L550.951 258ZM625.951 258L628.444 256.332L627.553 255H625.951V258ZM648.201 291.25H651.201V290.339L650.694 289.582L648.201 291.25ZM648.201 414L650.378 416.064L651.201 415.196V414H648.201ZM625.451 438V441H626.741L627.628 440.064L625.451 438ZM550.451 438L547.969 439.685L548.862 441H550.451V438ZM527.701 404.5H524.701V405.422L525.219 406.185L527.701 404.5ZM527.701 281.75L525.557 279.651L524.701 280.526V281.75H527.701ZM557.951 291.25L555.721 289.243L554.951 290.099V291.25H557.951ZM557.951 362.75H554.951V370.185L560.111 364.832L557.951 362.75ZM617.951 300.5L620.111 302.582L620.951 301.71V300.5H617.951ZM617.951 297H620.951V296.083L620.438 295.323L617.951 297ZM610.701 286.25L613.188 284.573L612.296 283.25H610.701V286.25ZM562.451 286.25V283.25H561.115L560.221 284.243L562.451 286.25ZM557.951 399.5H554.951V400.454L555.502 401.232L557.951 399.5ZM565.201 409.75L562.752 411.482L563.649 412.75H565.201V409.75ZM613.201 409.75V412.75H614.489L615.376 411.816L613.201 409.75ZM617.951 404.75L620.126 406.816L620.951 405.948V404.75H617.951ZM617.951 335.5H620.951V328.043L615.787 333.422L617.951 335.5ZM557.951 398L555.787 395.922L554.951 396.793V398H557.951ZM550.951 261H625.951V255H550.951V261ZM623.458 259.668L645.708 292.918L650.694 289.582L628.444 256.332L623.458 259.668ZM645.201 291.25V414H651.201V291.25H645.201ZM646.024 411.936L623.274 435.936L627.628 440.064L650.378 416.064L646.024 411.936ZM625.451 435H550.451V441H625.451V435ZM552.933 436.315L530.183 402.815L525.219 406.185L547.969 439.685L552.933 436.315ZM530.701 404.5V281.75H524.701V404.5H530.701ZM529.845 283.849L553.095 260.099L548.807 255.901L525.557 279.651L529.845 283.849ZM554.951 291.25V362.75H560.951V291.25H554.951ZM560.111 364.832L620.111 302.582L615.791 298.418L555.791 360.668L560.111 364.832ZM620.951 300.5V297H614.951V300.5H620.951ZM620.438 295.323L613.188 284.573L608.214 287.927L615.464 298.677L620.438 295.323ZM610.701 283.25H562.451V289.25H610.701V283.25ZM560.221 284.243L555.721 289.243L560.181 293.257L564.681 288.257L560.221 284.243ZM555.502 401.232L562.752 411.482L567.65 408.018L560.4 397.768L555.502 401.232ZM565.201 412.75H613.201V406.75H565.201V412.75ZM615.376 411.816L620.126 406.816L615.776 402.684L611.026 407.684L615.376 411.816ZM620.951 404.75V335.5H614.951V404.75H620.951ZM615.787 333.422L555.787 395.922L560.115 400.078L620.115 337.578L615.787 333.422ZM554.951 398V399.5H560.951V398H554.951Z" fill="black" mask="url(#path-1-outside-1_74_1175)"/>
</g>
<defs>
<filter id="filter0_d_74_1175" x="0.0429688" y="0" width="883.262" height="449" filterUnits="userSpaceOnUse" color-interpolation-filters="sRGB">
<feFlood flood-opacity="0" result="BackgroundImageFix"/>
<feColorMatrix in="SourceAlpha" type="matrix" values="0 0 0 0 0 0 0 0 0 0 0 0 0 0 0 0 0 0 127 0" result="hardAlpha"/>
<feOffset dx="12" dy="8"/>
<feComposite in2="hardAlpha" operator="out"/>
<feColorMatrix type="matrix" values="0 0 0 0 0.403922 0 0 0 0 0.694118 0 0 0 0 0.901961 0 0 0 1 0"/>
<feBlend mode="normal" in2="BackgroundImageFix" result="effect1_dropShadow_74_1175"/>
<feBlend mode="normal" in="SourceGraphic" in2="effect1_dropShadow_74_1175" result="shape"/>
</filter>
</defs>
</svg>
